<?xml version="1.0"?>
<svg width="156" height="33" xmlns="http://www.w3.org/2000/svg" xmlns:svg="http://www.w3.org/2000/svg">
 <defs>
  <clipPath id="clip0_196_4958">
   <rect fill="white" height="32" id="svg_1" transform="translate(0 0.5)" width="156"/>
  </clipPath>
 </defs>
 <g class="layer">
  <title>Layer 1</title>
  <path d="m42.06,24.47l-2.95,0c-0.33,-7.81 -6.48,-14.27 -14.6,-15.73c0.93,-0.86 1.47,-2.04 1.47,-3.39c0,-2.7 -2.18,-4.85 -4.9,-4.85c-2.72,0 -4.9,2.15 -4.9,4.85c0,1.35 0.54,2.58 1.47,3.45c-8.12,1.45 -14.27,7.92 -14.6,15.73l-3.05,0c0,1.07 0,0.48 0,1.07c0,0.6 0,0.18 0,1.08l42.06,0c0,-0.49 0,-0.3 0,-0.9c0,-0.59 0,-0.81 0,-1.31zm-20.98,-21.82c1.53,0 2.72,1.19 2.72,2.7c0,1.51 -1.19,2.69 -2.72,2.69c-1.52,0 -2.72,-1.18 -2.72,-2.69c0,-1.51 1.2,-2.7 2.72,-2.7zm0,7.98c8.5,0 15.47,6.19 15.85,13.9l-31.7,0c0.38,-7.76 7.35,-13.9 15.85,-13.9z" fill="#F25E3D" id="svg_3"/>
  <path d="m42.06,30.35l-42.06,0c0,0.33 0,0.48 0,1.07c0,0.6 0,0.48 0,1.08l42.06,0c0,-0.6 0,-0.41 0,-1.01c0,-0.59 0,-0.4 0,-1.14z" fill="#F25E3D" id="svg_4"/>
  <text fill="#000000" font-family="Fantasy" font-size="21" id="svg_6" stroke-width="0" text-anchor="middle" transform="matrix(0.761984 0 0 1.05996 -89.5484 25.7043)" x="247.62" xml:space="preserve" y="-0.36">Mama Recipe .io</text>
 </g>
</svg>