<?xml version="1.0"?>
<svg width="190" height="40" xmlns="http://www.w3.org/2000/svg" xmlns:svg="http://www.w3.org/2000/svg">
 <defs>
  <clipPath id="clip0_103_27">
   <rect fill="white" height="39.23" id="svg_1" transform="translate(0 0.23291)" width="189.15"/>
  </clipPath>
 </defs>
 <g class="layer">
  <title>Layer 1</title>
  <path d="m51,29.62l-3.58,0c-0.39,-9.57 -7.86,-17.5 -17.7,-19.28c1.12,-1.06 1.79,-2.51 1.79,-4.16c0,-3.31 -2.65,-5.95 -5.95,-5.95c-3.3,0 -5.94,2.64 -5.94,5.95c0,1.65 0.66,3.17 1.78,4.22c-9.84,1.79 -17.3,9.71 -17.7,19.29l-3.7,0c0,1.32 0,0.6 0,1.32c0,0.73 0,0.22 0,1.32l51,0c0,-0.6 0,-0.37 0,-1.1c0,-0.72 0,-1 0,-1.61zm-25.44,-26.75c1.85,0 3.3,1.46 3.3,3.31c0,1.85 -1.45,3.3 -3.3,3.3c-1.85,0 -3.3,-1.45 -3.3,-3.3c0,-1.85 1.45,-3.31 3.3,-3.31zm0,9.78c10.3,0 18.76,7.6 19.22,17.04l-38.44,0c0.46,-9.51 8.92,-17.04 19.22,-17.04z" fill="#F25E3D" id="svg_3"/>
  <path d="m51,36.82l-51,0c0,0.41 0,0.6 0,1.32c0,0.73 0,0.59 0,1.33l51,0c0,-0.74 0,-0.51 0,-1.24c0,-0.72 0,-0.5 0,-1.41z" fill="#F25E3D" id="svg_4"/>
  <text fill="#f5f5f5" font-family="Serif" font-size="27" font-weight="bold" id="svg_6" text-anchor="middle" transform="matrix(0.703281 0 0 1.08169 13.6754 -0.0401904)" x="151.24" xml:space="preserve" y="28">MamaRecipe .io</text>
 </g>
</svg>